# xmcd CD database file
#
# Track frame offsets:
#	150
#	51765
#	86680
#	121717
#	143878
#	178611
#	229777
#
# Disc length: 3227 seconds
#
# Revision: 0
# Processed by: cddbd v1.5.1PL0 Copyright (c) Steve Scherf et al.
# Submitted via: CDex 1.51
#
DISCID=550c9907
DTITLE=Benn Clatworthy - Let's Face The Music
DYEAR=1900
DGENRE=Jazz
TTITLE0=You Go To My Head
TTITLE1=The Boxer
TTITLE2=Dindi
TTITLE3=No Down, No Feathers
TTITLE4=Ruby My Dear
TTITLE5=Nature Boy
TTITLE6=Let's Face The Music And Dance
EXTD=
EXTT0=
EXTT1=
EXTT2=
EXTT3=
EXTT4=
EXTT5=
EXTT6=
PLAYORDER=
